<mxfile host="app.diagrams.net" agent="Mozilla/5.0 (Windows NT 10.0; Win64; x64) AppleWebKit/537.36 (KHTML, like Gecko) Chrome/135.0.0.0 Safari/537.36" version="26.2.14">
  <diagram name="Page-1" id="F09tJDcLUJdvpLIf89BM">
    <mxGraphModel dx="866" dy="431" grid="1" gridSize="10" guides="1" tooltips="1" connect="1" arrows="1" fold="1" page="1" pageScale="1" pageWidth="850" pageHeight="1100" math="0" shadow="0">
      <root>
        <mxCell id="0" />
        <mxCell id="1" parent="0" />
        <mxCell id="2GycT5Qsdp10Re1e6RrF-1" value="" style="ellipse;whiteSpace=wrap;html=1;aspect=fixed;" vertex="1" parent="1">
          <mxGeometry x="385" y="180" width="80" height="80" as="geometry" />
        </mxCell>
        <mxCell id="2GycT5Qsdp10Re1e6RrF-2" value="" style="endArrow=none;html=1;rounded=0;" edge="1" parent="1">
          <mxGeometry width="50" height="50" relative="1" as="geometry">
            <mxPoint x="400" y="245" as="sourcePoint" />
            <mxPoint x="450" y="195" as="targetPoint" />
          </mxGeometry>
        </mxCell>
        <mxCell id="2GycT5Qsdp10Re1e6RrF-3" value="E0" style="text;html=1;align=center;verticalAlign=middle;whiteSpace=wrap;rounded=0;fontSize=18;" vertex="1" parent="1">
          <mxGeometry x="385" y="190" width="60" height="30" as="geometry" />
        </mxCell>
        <mxCell id="2GycT5Qsdp10Re1e6RrF-4" value="1" style="text;html=1;align=center;verticalAlign=middle;whiteSpace=wrap;rounded=0;fontSize=18;" vertex="1" parent="1">
          <mxGeometry x="405" y="220" width="60" height="30" as="geometry" />
        </mxCell>
        <mxCell id="2GycT5Qsdp10Re1e6RrF-5" value="Inicio" style="text;html=1;align=center;verticalAlign=middle;whiteSpace=wrap;rounded=0;fontSize=16;" vertex="1" parent="1">
          <mxGeometry x="395" y="80" width="60" height="30" as="geometry" />
        </mxCell>
        <mxCell id="2GycT5Qsdp10Re1e6RrF-6" value="" style="curved=1;endArrow=classic;html=1;rounded=0;entryX=0.051;entryY=0.725;entryDx=0;entryDy=0;exitX=0.049;exitY=0.501;exitDx=0;exitDy=0;exitPerimeter=0;entryPerimeter=0;" edge="1" parent="1" source="2GycT5Qsdp10Re1e6RrF-3" target="2GycT5Qsdp10Re1e6RrF-1">
          <mxGeometry width="50" height="50" relative="1" as="geometry">
            <mxPoint x="385" y="205" as="sourcePoint" />
            <mxPoint x="380" y="290" as="targetPoint" />
            <Array as="points">
              <mxPoint x="350" y="190" />
              <mxPoint x="340" y="230" />
              <mxPoint x="360" y="270" />
            </Array>
          </mxGeometry>
        </mxCell>
        <mxCell id="2GycT5Qsdp10Re1e6RrF-7" value="0" style="text;html=1;align=center;verticalAlign=middle;whiteSpace=wrap;rounded=0;fontSize=18;" vertex="1" parent="1">
          <mxGeometry x="303" y="215" width="60" height="30" as="geometry" />
        </mxCell>
        <mxCell id="2GycT5Qsdp10Re1e6RrF-8" value="" style="ellipse;whiteSpace=wrap;html=1;aspect=fixed;" vertex="1" parent="1">
          <mxGeometry x="385" y="330" width="80" height="80" as="geometry" />
        </mxCell>
        <mxCell id="2GycT5Qsdp10Re1e6RrF-9" value="" style="endArrow=none;html=1;rounded=0;" edge="1" parent="1">
          <mxGeometry width="50" height="50" relative="1" as="geometry">
            <mxPoint x="400" y="395" as="sourcePoint" />
            <mxPoint x="450" y="345" as="targetPoint" />
          </mxGeometry>
        </mxCell>
        <mxCell id="2GycT5Qsdp10Re1e6RrF-10" value="E4" style="text;html=1;align=center;verticalAlign=middle;whiteSpace=wrap;rounded=0;fontSize=18;" vertex="1" parent="1">
          <mxGeometry x="385" y="340" width="60" height="30" as="geometry" />
        </mxCell>
        <mxCell id="2GycT5Qsdp10Re1e6RrF-11" value="0" style="text;html=1;align=center;verticalAlign=middle;whiteSpace=wrap;rounded=0;fontSize=18;" vertex="1" parent="1">
          <mxGeometry x="405" y="370" width="60" height="30" as="geometry" />
        </mxCell>
        <mxCell id="2GycT5Qsdp10Re1e6RrF-12" value="" style="endArrow=classic;html=1;rounded=0;entryX=0.5;entryY=0;entryDx=0;entryDy=0;exitX=0.5;exitY=1;exitDx=0;exitDy=0;" edge="1" parent="1" source="2GycT5Qsdp10Re1e6RrF-1" target="2GycT5Qsdp10Re1e6RrF-8">
          <mxGeometry width="50" height="50" relative="1" as="geometry">
            <mxPoint x="420" y="260" as="sourcePoint" />
            <mxPoint x="600" y="280" as="targetPoint" />
          </mxGeometry>
        </mxCell>
        <mxCell id="2GycT5Qsdp10Re1e6RrF-13" value="1" style="text;html=1;align=center;verticalAlign=middle;whiteSpace=wrap;rounded=0;fontSize=18;" vertex="1" parent="1">
          <mxGeometry x="386" y="280" width="60" height="30" as="geometry" />
        </mxCell>
        <mxCell id="2GycT5Qsdp10Re1e6RrF-14" value="" style="endArrow=classic;html=1;rounded=0;exitX=0;exitY=1;exitDx=0;exitDy=0;entryX=0.5;entryY=0;entryDx=0;entryDy=0;" edge="1" parent="1" source="2GycT5Qsdp10Re1e6RrF-8" target="2GycT5Qsdp10Re1e6RrF-16">
          <mxGeometry width="50" height="50" relative="1" as="geometry">
            <mxPoint x="308.2157287525381" y="400.0042712474617" as="sourcePoint" />
            <mxPoint x="291.5" y="471.72" as="targetPoint" />
          </mxGeometry>
        </mxCell>
        <mxCell id="2GycT5Qsdp10Re1e6RrF-15" value="1" style="text;html=1;align=center;verticalAlign=middle;whiteSpace=wrap;rounded=0;fontSize=18;" vertex="1" parent="1">
          <mxGeometry x="309" y="410" width="60" height="30" as="geometry" />
        </mxCell>
        <mxCell id="2GycT5Qsdp10Re1e6RrF-16" value="" style="ellipse;whiteSpace=wrap;html=1;aspect=fixed;" vertex="1" parent="1">
          <mxGeometry x="258" y="470" width="80" height="80" as="geometry" />
        </mxCell>
        <mxCell id="2GycT5Qsdp10Re1e6RrF-17" value="" style="endArrow=none;html=1;rounded=0;" edge="1" parent="1">
          <mxGeometry width="50" height="50" relative="1" as="geometry">
            <mxPoint x="273" y="535" as="sourcePoint" />
            <mxPoint x="323" y="485" as="targetPoint" />
          </mxGeometry>
        </mxCell>
        <mxCell id="2GycT5Qsdp10Re1e6RrF-18" value="E6" style="text;html=1;align=center;verticalAlign=middle;whiteSpace=wrap;rounded=0;fontSize=18;" vertex="1" parent="1">
          <mxGeometry x="258" y="480" width="60" height="30" as="geometry" />
        </mxCell>
        <mxCell id="2GycT5Qsdp10Re1e6RrF-19" value="1" style="text;html=1;align=center;verticalAlign=middle;whiteSpace=wrap;rounded=0;fontSize=18;" vertex="1" parent="1">
          <mxGeometry x="278" y="510" width="60" height="30" as="geometry" />
        </mxCell>
        <mxCell id="2GycT5Qsdp10Re1e6RrF-20" value="" style="endArrow=classic;html=1;rounded=0;entryX=0.5;entryY=0;entryDx=0;entryDy=0;exitX=1;exitY=1;exitDx=0;exitDy=0;" edge="1" parent="1" source="2GycT5Qsdp10Re1e6RrF-8" target="2GycT5Qsdp10Re1e6RrF-23">
          <mxGeometry width="50" height="50" relative="1" as="geometry">
            <mxPoint x="513.2842712474621" y="398.2842712474619" as="sourcePoint" />
            <mxPoint x="555" y="470" as="targetPoint" />
          </mxGeometry>
        </mxCell>
        <mxCell id="2GycT5Qsdp10Re1e6RrF-21" value="0" style="text;html=1;align=center;verticalAlign=middle;whiteSpace=wrap;rounded=0;fontSize=18;" vertex="1" parent="1">
          <mxGeometry x="480" y="410" width="60" height="30" as="geometry" />
        </mxCell>
        <mxCell id="2GycT5Qsdp10Re1e6RrF-22" style="edgeStyle=orthogonalEdgeStyle;rounded=0;orthogonalLoop=1;jettySize=auto;html=1;exitX=0;exitY=0.5;exitDx=0;exitDy=0;entryX=1;entryY=0;entryDx=0;entryDy=0;" edge="1" parent="1" source="2GycT5Qsdp10Re1e6RrF-23" target="2GycT5Qsdp10Re1e6RrF-19">
          <mxGeometry relative="1" as="geometry">
            <Array as="points">
              <mxPoint x="420" y="510" />
              <mxPoint x="420" y="510" />
            </Array>
          </mxGeometry>
        </mxCell>
        <mxCell id="2GycT5Qsdp10Re1e6RrF-23" value="" style="ellipse;whiteSpace=wrap;html=1;aspect=fixed;" vertex="1" parent="1">
          <mxGeometry x="510" y="470" width="80" height="80" as="geometry" />
        </mxCell>
        <mxCell id="2GycT5Qsdp10Re1e6RrF-24" value="" style="endArrow=none;html=1;rounded=0;" edge="1" parent="1">
          <mxGeometry width="50" height="50" relative="1" as="geometry">
            <mxPoint x="525" y="535" as="sourcePoint" />
            <mxPoint x="575" y="485" as="targetPoint" />
          </mxGeometry>
        </mxCell>
        <mxCell id="2GycT5Qsdp10Re1e6RrF-25" value="E2" style="text;html=1;align=center;verticalAlign=middle;whiteSpace=wrap;rounded=0;fontSize=18;" vertex="1" parent="1">
          <mxGeometry x="510" y="480" width="60" height="30" as="geometry" />
        </mxCell>
        <mxCell id="2GycT5Qsdp10Re1e6RrF-26" value="0" style="text;html=1;align=center;verticalAlign=middle;whiteSpace=wrap;rounded=0;fontSize=18;" vertex="1" parent="1">
          <mxGeometry x="530" y="510" width="60" height="30" as="geometry" />
        </mxCell>
        <mxCell id="2GycT5Qsdp10Re1e6RrF-27" value="" style="endArrow=classic;html=1;rounded=0;entryX=0.5;entryY=0;entryDx=0;entryDy=0;exitX=0;exitY=1;exitDx=0;exitDy=0;" edge="1" parent="1" source="2GycT5Qsdp10Re1e6RrF-16" target="2GycT5Qsdp10Re1e6RrF-29">
          <mxGeometry width="50" height="50" relative="1" as="geometry">
            <mxPoint x="266.7157287525381" y="540.0042712474617" as="sourcePoint" />
            <mxPoint x="235" y="623.72" as="targetPoint" />
          </mxGeometry>
        </mxCell>
        <mxCell id="2GycT5Qsdp10Re1e6RrF-28" value="1" style="text;html=1;align=center;verticalAlign=middle;whiteSpace=wrap;rounded=0;fontSize=18;" vertex="1" parent="1">
          <mxGeometry x="210" y="563.72" width="60" height="30" as="geometry" />
        </mxCell>
        <mxCell id="2GycT5Qsdp10Re1e6RrF-29" value="" style="ellipse;whiteSpace=wrap;html=1;aspect=fixed;" vertex="1" parent="1">
          <mxGeometry x="190" y="623.72" width="80" height="80" as="geometry" />
        </mxCell>
        <mxCell id="2GycT5Qsdp10Re1e6RrF-30" value="" style="endArrow=none;html=1;rounded=0;" edge="1" parent="1">
          <mxGeometry width="50" height="50" relative="1" as="geometry">
            <mxPoint x="205" y="688.72" as="sourcePoint" />
            <mxPoint x="255" y="638.72" as="targetPoint" />
          </mxGeometry>
        </mxCell>
        <mxCell id="2GycT5Qsdp10Re1e6RrF-31" value="E7" style="text;html=1;align=center;verticalAlign=middle;whiteSpace=wrap;rounded=0;fontSize=18;" vertex="1" parent="1">
          <mxGeometry x="190" y="633.72" width="60" height="30" as="geometry" />
        </mxCell>
        <mxCell id="2GycT5Qsdp10Re1e6RrF-32" style="edgeStyle=orthogonalEdgeStyle;rounded=0;orthogonalLoop=1;jettySize=auto;html=1;exitX=1;exitY=0;exitDx=0;exitDy=0;entryX=0;entryY=0.5;entryDx=0;entryDy=0;" edge="1" parent="1" source="2GycT5Qsdp10Re1e6RrF-33" target="2GycT5Qsdp10Re1e6RrF-34">
          <mxGeometry relative="1" as="geometry">
            <Array as="points">
              <mxPoint x="280" y="663.72" />
              <mxPoint x="280" y="663.72" />
            </Array>
          </mxGeometry>
        </mxCell>
        <mxCell id="2GycT5Qsdp10Re1e6RrF-33" value="0" style="text;html=1;align=center;verticalAlign=middle;whiteSpace=wrap;rounded=0;fontSize=18;" vertex="1" parent="1">
          <mxGeometry x="210" y="663.72" width="60" height="30" as="geometry" />
        </mxCell>
        <mxCell id="2GycT5Qsdp10Re1e6RrF-34" value="" style="ellipse;whiteSpace=wrap;html=1;aspect=fixed;" vertex="1" parent="1">
          <mxGeometry x="315" y="623.72" width="80" height="80" as="geometry" />
        </mxCell>
        <mxCell id="2GycT5Qsdp10Re1e6RrF-35" value="" style="endArrow=none;html=1;rounded=0;" edge="1" parent="1">
          <mxGeometry width="50" height="50" relative="1" as="geometry">
            <mxPoint x="330" y="688.72" as="sourcePoint" />
            <mxPoint x="380" y="638.72" as="targetPoint" />
          </mxGeometry>
        </mxCell>
        <mxCell id="2GycT5Qsdp10Re1e6RrF-36" value="E3" style="text;html=1;align=center;verticalAlign=middle;whiteSpace=wrap;rounded=0;fontSize=18;" vertex="1" parent="1">
          <mxGeometry x="315" y="633.72" width="60" height="30" as="geometry" />
        </mxCell>
        <mxCell id="2GycT5Qsdp10Re1e6RrF-37" style="edgeStyle=orthogonalEdgeStyle;rounded=0;orthogonalLoop=1;jettySize=auto;html=1;exitX=1;exitY=0;exitDx=0;exitDy=0;entryX=0;entryY=0.5;entryDx=0;entryDy=0;" edge="1" parent="1">
          <mxGeometry relative="1" as="geometry">
            <mxPoint x="395" y="665.46" as="sourcePoint" />
            <mxPoint x="445.000000000001" y="663.7399999999999" as="targetPoint" />
            <Array as="points">
              <mxPoint x="395" y="663.74" />
            </Array>
          </mxGeometry>
        </mxCell>
        <mxCell id="2GycT5Qsdp10Re1e6RrF-38" value="1" style="text;html=1;align=center;verticalAlign=middle;whiteSpace=wrap;rounded=0;fontSize=18;" vertex="1" parent="1">
          <mxGeometry x="335" y="663.72" width="60" height="30" as="geometry" />
        </mxCell>
        <mxCell id="2GycT5Qsdp10Re1e6RrF-39" value="" style="endArrow=classic;html=1;rounded=0;entryX=0.5;entryY=0;entryDx=0;entryDy=0;exitX=1;exitY=1;exitDx=0;exitDy=0;" edge="1" parent="1" source="2GycT5Qsdp10Re1e6RrF-23" target="2GycT5Qsdp10Re1e6RrF-41">
          <mxGeometry width="50" height="50" relative="1" as="geometry">
            <mxPoint x="630" y="540" as="sourcePoint" />
            <mxPoint x="615" y="612" as="targetPoint" />
          </mxGeometry>
        </mxCell>
        <mxCell id="2GycT5Qsdp10Re1e6RrF-40" value="0" style="text;html=1;align=center;verticalAlign=middle;whiteSpace=wrap;rounded=0;fontSize=18;" vertex="1" parent="1">
          <mxGeometry x="571" y="562" width="60" height="30" as="geometry" />
        </mxCell>
        <mxCell id="2GycT5Qsdp10Re1e6RrF-41" value="" style="ellipse;whiteSpace=wrap;html=1;aspect=fixed;" vertex="1" parent="1">
          <mxGeometry x="570" y="622" width="80" height="80" as="geometry" />
        </mxCell>
        <mxCell id="2GycT5Qsdp10Re1e6RrF-42" value="" style="endArrow=none;html=1;rounded=0;" edge="1" parent="1">
          <mxGeometry width="50" height="50" relative="1" as="geometry">
            <mxPoint x="585" y="687" as="sourcePoint" />
            <mxPoint x="635" y="637" as="targetPoint" />
          </mxGeometry>
        </mxCell>
        <mxCell id="2GycT5Qsdp10Re1e6RrF-43" value="E1" style="text;html=1;align=center;verticalAlign=middle;whiteSpace=wrap;rounded=0;fontSize=18;" vertex="1" parent="1">
          <mxGeometry x="570" y="632" width="60" height="30" as="geometry" />
        </mxCell>
        <mxCell id="2GycT5Qsdp10Re1e6RrF-44" value="0" style="text;html=1;align=center;verticalAlign=middle;whiteSpace=wrap;rounded=0;fontSize=18;" vertex="1" parent="1">
          <mxGeometry x="590" y="662" width="60" height="30" as="geometry" />
        </mxCell>
        <mxCell id="2GycT5Qsdp10Re1e6RrF-45" value="" style="curved=1;endArrow=classic;html=1;rounded=0;entryX=1;entryY=0.5;entryDx=0;entryDy=0;" edge="1" parent="1" target="2GycT5Qsdp10Re1e6RrF-1">
          <mxGeometry width="50" height="50" relative="1" as="geometry">
            <mxPoint x="650" y="652" as="sourcePoint" />
            <mxPoint x="470" y="210" as="targetPoint" />
            <Array as="points">
              <mxPoint x="700" y="640" />
              <mxPoint x="720" y="620" />
              <mxPoint x="730" y="580" />
              <mxPoint x="720" y="540" />
              <mxPoint x="680" y="450" />
              <mxPoint x="610" y="370" />
            </Array>
          </mxGeometry>
        </mxCell>
        <mxCell id="2GycT5Qsdp10Re1e6RrF-46" value="0" style="text;html=1;align=center;verticalAlign=middle;whiteSpace=wrap;rounded=0;fontSize=18;" vertex="1" parent="1">
          <mxGeometry x="620" y="380" width="60" height="30" as="geometry" />
        </mxCell>
        <mxCell id="2GycT5Qsdp10Re1e6RrF-47" value="" style="curved=1;endArrow=classic;html=1;rounded=0;exitX=1;exitY=0;exitDx=0;exitDy=0;entryX=0.985;entryY=0.35;entryDx=0;entryDy=0;entryPerimeter=0;" edge="1" parent="1" source="2GycT5Qsdp10Re1e6RrF-41" target="2GycT5Qsdp10Re1e6RrF-8">
          <mxGeometry width="50" height="50" relative="1" as="geometry">
            <mxPoint x="640" y="612" as="sourcePoint" />
            <mxPoint x="525" y="370" as="targetPoint" />
            <Array as="points">
              <mxPoint x="690" y="612" />
              <mxPoint x="640" y="470" />
            </Array>
          </mxGeometry>
        </mxCell>
        <mxCell id="2GycT5Qsdp10Re1e6RrF-48" value="1" style="text;html=1;align=center;verticalAlign=middle;whiteSpace=wrap;rounded=0;fontSize=18;" vertex="1" parent="1">
          <mxGeometry x="584" y="440" width="60" height="30" as="geometry" />
        </mxCell>
        <mxCell id="2GycT5Qsdp10Re1e6RrF-49" value="" style="curved=1;endArrow=classic;html=1;rounded=0;entryX=0.051;entryY=0.73;entryDx=0;entryDy=0;exitX=0.047;exitY=0.515;exitDx=0;exitDy=0;entryPerimeter=0;exitPerimeter=0;" edge="1" parent="1">
          <mxGeometry width="50" height="50" relative="1" as="geometry">
            <mxPoint x="193" y="648.72" as="sourcePoint" />
            <mxPoint x="194" y="681.72" as="targetPoint" />
            <Array as="points">
              <mxPoint x="151" y="633.72" />
              <mxPoint x="141" y="673.72" />
              <mxPoint x="161" y="713.72" />
            </Array>
          </mxGeometry>
        </mxCell>
        <mxCell id="2GycT5Qsdp10Re1e6RrF-50" value="1" style="text;html=1;align=center;verticalAlign=middle;whiteSpace=wrap;rounded=0;fontSize=18;" vertex="1" parent="1">
          <mxGeometry x="105" y="657" width="60" height="30" as="geometry" />
        </mxCell>
        <mxCell id="2GycT5Qsdp10Re1e6RrF-51" value="0" style="text;html=1;align=center;verticalAlign=middle;whiteSpace=wrap;rounded=0;fontSize=18;" vertex="1" parent="1">
          <mxGeometry x="259" y="636.72" width="60" height="30" as="geometry" />
        </mxCell>
        <mxCell id="2GycT5Qsdp10Re1e6RrF-52" value="" style="endArrow=classic;html=1;rounded=0;entryX=0.5;entryY=0;entryDx=0;entryDy=0;exitX=0.5;exitY=1;exitDx=0;exitDy=0;" edge="1" parent="1">
          <mxGeometry width="50" height="50" relative="1" as="geometry">
            <mxPoint x="425" y="110" as="sourcePoint" />
            <mxPoint x="425" y="180" as="targetPoint" />
          </mxGeometry>
        </mxCell>
        <mxCell id="2GycT5Qsdp10Re1e6RrF-53" value="" style="endArrow=classic;html=1;rounded=0;entryX=0.5;entryY=0;entryDx=0;entryDy=0;exitX=0;exitY=1;exitDx=0;exitDy=0;" edge="1" parent="1" target="2GycT5Qsdp10Re1e6RrF-55">
          <mxGeometry width="50" height="50" relative="1" as="geometry">
            <mxPoint x="521.7157287525381" y="538.2842712474617" as="sourcePoint" />
            <mxPoint x="490" y="622" as="targetPoint" />
          </mxGeometry>
        </mxCell>
        <mxCell id="2GycT5Qsdp10Re1e6RrF-54" value="1" style="text;html=1;align=center;verticalAlign=middle;whiteSpace=wrap;rounded=0;fontSize=18;" vertex="1" parent="1">
          <mxGeometry x="465" y="562" width="60" height="30" as="geometry" />
        </mxCell>
        <mxCell id="2GycT5Qsdp10Re1e6RrF-55" value="" style="ellipse;whiteSpace=wrap;html=1;aspect=fixed;" vertex="1" parent="1">
          <mxGeometry x="445" y="622" width="80" height="80" as="geometry" />
        </mxCell>
        <mxCell id="2GycT5Qsdp10Re1e6RrF-56" value="" style="endArrow=none;html=1;rounded=0;" edge="1" parent="1">
          <mxGeometry width="50" height="50" relative="1" as="geometry">
            <mxPoint x="460" y="687" as="sourcePoint" />
            <mxPoint x="510" y="637" as="targetPoint" />
          </mxGeometry>
        </mxCell>
        <mxCell id="2GycT5Qsdp10Re1e6RrF-57" value="E5" style="text;html=1;align=center;verticalAlign=middle;whiteSpace=wrap;rounded=0;fontSize=18;" vertex="1" parent="1">
          <mxGeometry x="445" y="632" width="60" height="30" as="geometry" />
        </mxCell>
        <mxCell id="2GycT5Qsdp10Re1e6RrF-58" value="0" style="text;html=1;align=center;verticalAlign=middle;whiteSpace=wrap;rounded=0;fontSize=18;" vertex="1" parent="1">
          <mxGeometry x="465" y="662" width="60" height="30" as="geometry" />
        </mxCell>
        <mxCell id="2GycT5Qsdp10Re1e6RrF-59" value="" style="endArrow=classic;html=1;rounded=0;entryX=0.5;entryY=1;entryDx=0;entryDy=0;exitX=1;exitY=0;exitDx=0;exitDy=0;" edge="1" parent="1" source="2GycT5Qsdp10Re1e6RrF-55" target="2GycT5Qsdp10Re1e6RrF-23">
          <mxGeometry width="50" height="50" relative="1" as="geometry">
            <mxPoint x="524" y="573" as="sourcePoint" />
            <mxPoint x="556" y="657" as="targetPoint" />
          </mxGeometry>
        </mxCell>
        <mxCell id="2GycT5Qsdp10Re1e6RrF-60" value="0" style="text;html=1;align=center;verticalAlign=middle;whiteSpace=wrap;rounded=0;fontSize=18;" vertex="1" parent="1">
          <mxGeometry x="510" y="580" width="60" height="30" as="geometry" />
        </mxCell>
        <mxCell id="2GycT5Qsdp10Re1e6RrF-61" value="" style="endArrow=classic;html=1;rounded=0;exitX=0;exitY=0;exitDx=0;exitDy=0;" edge="1" parent="1" source="2GycT5Qsdp10Re1e6RrF-55" target="2GycT5Qsdp10Re1e6RrF-16">
          <mxGeometry width="50" height="50" relative="1" as="geometry">
            <mxPoint x="403" y="622" as="sourcePoint" />
            <mxPoint x="440" y="538" as="targetPoint" />
          </mxGeometry>
        </mxCell>
        <mxCell id="2GycT5Qsdp10Re1e6RrF-62" value="1" style="text;html=1;align=center;verticalAlign=middle;whiteSpace=wrap;rounded=0;fontSize=18;" vertex="1" parent="1">
          <mxGeometry x="372" y="562" width="60" height="30" as="geometry" />
        </mxCell>
        <mxCell id="2GycT5Qsdp10Re1e6RrF-63" value="" style="endArrow=classic;html=1;rounded=0;entryX=0.5;entryY=0;entryDx=0;entryDy=0;exitX=0.799;exitY=0.914;exitDx=0;exitDy=0;exitPerimeter=0;" edge="1" parent="1" source="2GycT5Qsdp10Re1e6RrF-16" target="2GycT5Qsdp10Re1e6RrF-34">
          <mxGeometry width="50" height="50" relative="1" as="geometry">
            <mxPoint x="328" y="540" as="sourcePoint" />
            <mxPoint x="360" y="624" as="targetPoint" />
          </mxGeometry>
        </mxCell>
        <mxCell id="2GycT5Qsdp10Re1e6RrF-64" value="0" style="text;html=1;align=center;verticalAlign=middle;whiteSpace=wrap;rounded=0;fontSize=18;" vertex="1" parent="1">
          <mxGeometry x="315" y="563.72" width="60" height="30" as="geometry" />
        </mxCell>
        <mxCell id="2GycT5Qsdp10Re1e6RrF-65" value="1" style="text;html=1;align=center;verticalAlign=middle;whiteSpace=wrap;rounded=0;fontSize=18;" vertex="1" parent="1">
          <mxGeometry x="390" y="636.72" width="60" height="30" as="geometry" />
        </mxCell>
        <mxCell id="2GycT5Qsdp10Re1e6RrF-66" value="" style="curved=1;endArrow=classic;html=1;rounded=0;exitX=0.714;exitY=0.947;exitDx=0;exitDy=0;entryX=0.203;entryY=0.906;entryDx=0;entryDy=0;entryPerimeter=0;exitPerimeter=0;" edge="1" parent="1" source="2GycT5Qsdp10Re1e6RrF-34" target="2GycT5Qsdp10Re1e6RrF-41">
          <mxGeometry width="50" height="50" relative="1" as="geometry">
            <mxPoint x="432" y="780" as="sourcePoint" />
            <mxPoint x="482" y="730" as="targetPoint" />
            <Array as="points">
              <mxPoint x="390" y="720" />
              <mxPoint x="430" y="730" />
              <mxPoint x="520" y="730" />
              <mxPoint x="560" y="720" />
            </Array>
          </mxGeometry>
        </mxCell>
        <mxCell id="2GycT5Qsdp10Re1e6RrF-67" value="0" style="text;html=1;align=center;verticalAlign=middle;whiteSpace=wrap;rounded=0;fontSize=18;rotation=0;" vertex="1" parent="1">
          <mxGeometry x="455" y="726" width="60" height="30" as="geometry" />
        </mxCell>
        <mxCell id="2GycT5Qsdp10Re1e6RrF-68" value="" style="whiteSpace=wrap;html=1;aspect=fixed;" vertex="1" parent="1">
          <mxGeometry x="105" y="80" width="130" height="130" as="geometry" />
        </mxCell>
        <mxCell id="2GycT5Qsdp10Re1e6RrF-69" value="" style="ellipse;whiteSpace=wrap;html=1;aspect=fixed;" vertex="1" parent="1">
          <mxGeometry x="145" y="90" width="80" height="80" as="geometry" />
        </mxCell>
        <mxCell id="2GycT5Qsdp10Re1e6RrF-70" value="" style="endArrow=none;html=1;rounded=0;" edge="1" parent="1">
          <mxGeometry width="50" height="50" relative="1" as="geometry">
            <mxPoint x="160" y="155" as="sourcePoint" />
            <mxPoint x="210" y="105" as="targetPoint" />
          </mxGeometry>
        </mxCell>
        <mxCell id="2GycT5Qsdp10Re1e6RrF-71" value="s" style="text;html=1;align=center;verticalAlign=middle;whiteSpace=wrap;rounded=0;fontSize=18;" vertex="1" parent="1">
          <mxGeometry x="165" y="130" width="60" height="30" as="geometry" />
        </mxCell>
        <mxCell id="2GycT5Qsdp10Re1e6RrF-72" value="" style="endArrow=classic;html=1;rounded=0;exitX=0;exitY=1;exitDx=0;exitDy=0;" edge="1" parent="1" source="2GycT5Qsdp10Re1e6RrF-69">
          <mxGeometry width="50" height="50" relative="1" as="geometry">
            <mxPoint x="145" y="250" as="sourcePoint" />
            <mxPoint x="120" y="200" as="targetPoint" />
          </mxGeometry>
        </mxCell>
        <mxCell id="2GycT5Qsdp10Re1e6RrF-73" value="a" style="text;html=1;align=center;verticalAlign=middle;whiteSpace=wrap;rounded=0;fontSize=18;" vertex="1" parent="1">
          <mxGeometry x="105" y="150" width="60" height="30" as="geometry" />
        </mxCell>
      </root>
    </mxGraphModel>
  </diagram>
</mxfile>
